<?xml version="1.0" standalone="no"?>
<!DOCTYPE svg PUBLIC "-//W3C//DTD SVG 20010904//EN"
 "http://www.w3.org/TR/2001/REC-SVG-20010904/DTD/svg10.dtd">
<svg version="1.0" xmlns="http://www.w3.org/2000/svg"
 width="512.000000pt" height="512.000000pt" viewBox="0 0 512.000000 512.000000"
 preserveAspectRatio="xMidYMid meet">

<g transform="translate(0.000000,512.000000) scale(0.100000,-0.100000)"
fill="#4CAF50" stroke="none">
<path d="M2380 5114 c-19 -2 -78 -9 -130 -14 -548 -60 -1093 -325 -1499 -731
-406 -407 -656 -917 -733 -1499 -16 -123 -16 -497 0 -620 77 -582 327 -1092
733 -1499 641 -641 1558 -892 2442 -670 744 187 1381 720 1698 1423 264 583
300 1253 99 1857 -131 392 -331 718 -621 1008 -405 404 -919 657 -1489 731
-88 12 -438 21 -500 14z m386 -365 c874 -85 1611 -675 1885 -1512 253 -770 54
-1621 -515 -2206 -255 -261 -544 -444 -877 -555 -691 -230 -1424 -112 -2018
326 -124 92 -348 316 -442 443 -244 329 -389 706 -428 1109 -48 489 82 1009
353 1415 98 147 178 241 317 376 457 442 1094 666 1725 604z"/>
<path d="M2475 3781 c-40 -24 -71 -60 -84 -94 -7 -19 -11 -187 -11 -488 l0
-459 -459 0 c-301 0 -469 -4 -488 -11 -34 -13 -80 -55 -99 -91 -8 -15 -14 -50
-14 -78 0 -28 6 -63 14 -78 19 -36 65 -78 99 -91 19 -7 187 -11 488 -11 l459
0 0 -459 c0 -301 4 -469 11 -488 13 -34 55 -80 91 -99 35 -18 121 -18 156 0
36 19 78 65 91 99 7 19 11 187 11 488 l0 459 459 0 c301 0 469 4 488 11 34 13
80 55 99 91 8 15 14 50 14 78 0 28 -6 63 -14 78 -19 36 -65 78 -99 91 -19 7
-187 11 -488 11 l-459 0 0 459 c0 301 -4 469 -11 488 -13 34 -55 80 -91 99
-39 20 -127 18 -163 -5z"/>
</g>
</svg>
