<?xml version="1.0" standalone="no"?>
<!DOCTYPE svg PUBLIC "-//W3C//DTD SVG 20010904//EN"
 "http://www.w3.org/TR/2001/REC-SVG-20010904/DTD/svg10.dtd">
<svg version="1.0" xmlns="http://www.w3.org/2000/svg"
 width="512.000000pt" height="512.000000pt" viewBox="0 0 512.000000 512.000000"
 preserveAspectRatio="xMidYMid meet">

<g transform="translate(0.000000,512.000000) scale(0.100000,-0.100000)"
fill="#000000" stroke="none">
<path d="M2405 5109 c-357 -52 -690 -316 -819 -651 -60 -155 -70 -214 -70
-393 1 -140 4 -172 27 -257 99 -371 384 -656 756 -756 84 -22 116 -25 256 -26
185 0 271 17 422 82 124 53 223 121 323 222 374 373 413 949 93 1377 -86 115
-229 235 -358 300 -178 91 -428 131 -630 102z m293 -365 c44 -9 117 -35 171
-61 78 -37 109 -59 177 -127 68 -68 90 -99 127 -177 102 -211 102 -412 0 -619
-112 -228 -354 -379 -610 -380 -105 0 -205 25 -312 76 -78 38 -109 61 -176
128 -67 67 -90 98 -128 176 -101 207 -102 412 -2 615 137 281 445 432 753 369z"/>
<path d="M1953 2820 c-348 -30 -658 -175 -903 -421 -201 -202 -326 -431 -396
-729 -16 -66 -18 -145 -21 -688 -4 -668 -4 -670 53 -767 56 -96 174 -181 282
-204 75 -16 3109 -16 3184 0 147 31 275 147 320 292 17 54 18 105 18 635 0
623 -3 666 -55 847 -137 473 -519 853 -990 985 -178 50 -205 52 -820 55 -319
2 -621 -1 -672 -5z m1188 -360 c438 -42 794 -321 936 -735 49 -146 53 -197 53
-781 l0 -543 -22 -21 c-21 -19 -34 -20 -240 -20 l-218 0 0 512 c0 501 0 513
-21 556 -64 131 -260 130 -320 -1 -17 -39 -19 -73 -19 -554 l0 -513 -730 0
-730 0 0 512 c0 501 0 513 -21 556 -64 131 -254 131 -318 0 -21 -43 -21 -55
-21 -556 l0 -512 -218 0 c-206 0 -219 1 -240 20 l-22 21 0 543 c0 584 4 635
53 781 57 166 169 340 290 451 172 158 403 261 629 283 122 12 1056 13 1179 1z"/>
</g>
</svg>
